<svg width="18" height="18" viewBox="0 0 18 18" fill="none" xmlns="http://www.w3.org/2000/svg">
<g clip-path="url(#clip0_145_106)">
<path d="M17.0098 0.990143C16.3499 0.330089 15.5549 0 14.6253 0H3.37522C2.44562 0 1.65057 0.330089 0.990387 0.990143C0.330333 1.65032 0.000244141 2.44533 0.000244141 3.37497V14.6249C0.000244141 15.5545 0.330333 16.3496 0.990387 17.0097C1.65057 17.6699 2.44562 18 3.37522 18H14.6252C15.5548 18 16.3498 17.6699 17.0097 17.0097C17.6699 16.3496 18 15.5545 18 14.6249V3.37497C17.9999 2.44533 17.6698 1.6502 17.0098 0.990143ZM14.742 13.663C14.578 14.0223 14.2088 14.335 13.6347 14.6007C13.0605 14.8665 12.5506 14.9994 12.1052 14.9994C11.9801 14.9994 11.8473 14.9897 11.7067 14.9702C11.5661 14.9505 11.4471 14.9311 11.3495 14.9116C11.2519 14.892 11.1228 14.8569 10.9628 14.8061C10.8025 14.7554 10.6872 14.7162 10.6171 14.6889C10.5466 14.6617 10.4178 14.6128 10.2304 14.5426C10.0429 14.4721 9.92557 14.4291 9.87898 14.4138C8.59774 13.9447 7.3456 13.0992 6.12302 11.8766C4.90043 10.6537 4.05469 9.40186 3.58591 8.12083C3.57039 8.07392 3.52742 7.95669 3.45702 7.76928C3.38675 7.5819 3.33779 7.4529 3.31045 7.38267C3.28328 7.31236 3.24416 7.1971 3.19335 7.03706C3.14257 6.87686 3.10752 6.74806 3.08794 6.65029C3.06832 6.55277 3.04895 6.43369 3.02937 6.29303C3.00983 6.15237 3.0001 6.01938 3.0001 5.89448C3.0001 5.44913 3.13297 4.93939 3.39866 4.36516C3.6643 3.79101 3.97674 3.42189 4.33618 3.25779C4.75025 3.08585 5.14478 2.9999 5.51981 2.9999C5.60564 2.9999 5.66823 3.00778 5.70719 3.02338C5.7463 3.03918 5.81078 3.10933 5.90067 3.23435C5.99056 3.35938 6.08817 3.51753 6.19362 3.70896C6.2991 3.90044 6.40262 4.08601 6.50417 4.26562C6.60571 4.44528 6.7034 4.62292 6.79719 4.79885C6.89094 4.97448 6.94951 5.08596 6.97291 5.13267C6.99635 5.17195 7.04716 5.24604 7.12523 5.35551C7.2033 5.46481 7.26203 5.56234 7.30103 5.64837C7.34002 5.73432 7.3596 5.81637 7.3596 5.89448C7.3596 6.01183 7.27944 6.15434 7.11932 6.32217C6.95912 6.49017 6.78332 6.64454 6.59188 6.78521C6.40044 6.92587 6.22473 7.0763 6.06457 7.23646C5.90453 7.3965 5.82437 7.52735 5.82437 7.62894C5.82437 7.68365 5.83804 7.74805 5.86542 7.82226C5.89275 7.89664 5.91816 7.95718 5.9416 8.00397C5.96503 8.05081 6.00222 8.11726 6.05291 8.20329C6.10369 8.28932 6.13697 8.34395 6.15249 8.36743C6.58211 9.14085 7.07634 9.8069 7.63481 10.3656C8.19352 10.9243 8.85945 11.4183 9.63299 11.848C9.65627 11.8638 9.71106 11.8969 9.79734 11.9478C9.88317 11.9983 9.94974 12.0354 9.99653 12.0589C10.0434 12.0823 10.1038 12.1078 10.1782 12.1349C10.2525 12.1621 10.3169 12.1759 10.3719 12.1759C10.4965 12.1759 10.6684 12.0471 10.8874 11.7893C11.1061 11.5313 11.3289 11.2755 11.5554 11.0216C11.7819 10.7679 11.9653 10.6409 12.1062 10.6409C12.1843 10.6409 12.2662 10.6603 12.3524 10.6994C12.4384 10.7384 12.5359 10.7971 12.6452 10.8752C12.7547 10.9536 12.8289 11.0042 12.868 11.0279L13.4888 11.3674C13.9029 11.5863 14.2486 11.7796 14.526 11.9476C14.8034 12.1156 14.9539 12.2307 14.9773 12.2931C14.9929 12.3321 15.0005 12.3948 15.0005 12.4808C15.0002 12.8554 14.9142 13.25 14.742 13.663Z" fill="#C4C4C4"/>
</g>
<defs>
<clipPath id="clip0_145_106">
<rect width="18" height="18" fill="white"/>
</clipPath>
</defs>
</svg>
