<svg width="20" height="20" viewBox="0 0 20 20" fill="none" xmlns="http://www.w3.org/2000/svg">
<g clip-path="url(#clip0_145_109)">
<path fill-rule="evenodd" clip-rule="evenodd" d="M10 20C10 20 17.5 12.8925 17.5 7.5C17.5 5.51088 16.7098 3.60322 15.3033 2.1967C13.8968 0.790176 11.9891 0 10 0C8.01088 0 6.10322 0.790176 4.6967 2.1967C3.29018 3.60322 2.5 5.51088 2.5 7.5C2.5 12.8925 10 20 10 20ZM10 11.25C10.9946 11.25 11.9484 10.8549 12.6517 10.1517C13.3549 9.44839 13.75 8.49456 13.75 7.5C13.75 6.50544 13.3549 5.55161 12.6517 4.84835C11.9484 4.14509 10.9946 3.75 10 3.75C9.00544 3.75 8.05161 4.14509 7.34835 4.84835C6.64509 5.55161 6.25 6.50544 6.25 7.5C6.25 8.49456 6.64509 9.44839 7.34835 10.1517C8.05161 10.8549 9.00544 11.25 10 11.25Z" fill="#C4C4C4"/>
</g>
<defs>
<clipPath id="clip0_145_109">
<rect width="20" height="20" fill="white"/>
</clipPath>
</defs>
</svg>
